<?xml version="1.0" encoding="iso-8859-1"?>
<!-- Generator: Adobe Illustrator 19.0.0, SVG Export Plug-In . SVG Version: 6.00 Build 0)  -->
<svg version="1.1" id="Capa_1" xmlns="http://www.w3.org/2000/svg" xmlns:xlink="http://www.w3.org/1999/xlink" x="0px" y="0px"
	 viewBox="0 0 496 496" style="enable-background:new 0 0 496 496;" xml:space="preserve">
<g>
	<g>
		<path d="M248,144c-17.648,0-32,14.352-32,32v48h64v-48C280,158.352,265.648,144,248,144z M264,208h-32v-32c0-8.824,7.176-16,16-16
			c8.824,0,16,7.176,16,16V208z"/>
	</g>
</g>
<g>
	<g>
		<path d="M448,248h21.928L400,128.12L330.072,248H352v32h-32V97.888l16-32V0h-48v24h-16V0h-48v24h-16V0h-48v65.888l16,32V280h-32
			v-32h21.928L96,128.12L26.072,248H48v232H32v16h432v-16h-16V248z M176,16h16v24h48V16h16v24h48V16h16v40h-16v16h11.056l-8,16
			H188.944l-8-16H288V56H176V16z M216,280v24h-24v-16v-8V104h112v176v8v16h-24v-24H216z M128,352H96v16h32v16h-16v16h16v80H64v-16
			h16v-16H64v-16h32v-16H64V312h16v-16H64v-16h32v-16H64v-16h64V352z M53.928,232L96,159.88L138.072,232H53.928z M288,480h-80v-40
			c0-22.056,17.944-40,40-40c22.056,0,40,17.944,40,40V480z M352,336h-16v16h16v128h-48v-40c0-30.88-25.128-56-56-56
			s-56,25.12-56,56v40h-48V352h176v-16H144v-40h32v24h56v-24h32v24h56v-24h32V336z M432,296h-16v16h16v104h-16v16h16v16h-16v16h16
			v16h-64v-80h16v-16h-16v-16h32v-16h-32v-72h32v-16h-32v-16h64V296z M357.928,232L400,159.88L442.072,232H357.928z"/>
	</g>
</g>
<g>
	<g>
		<rect x="480" y="480" width="16" height="16"/>
	</g>
</g>
<g>
	<g>
		<rect y="480" width="16" height="16"/>
	</g>
</g>
<g>
	<g>
		<rect x="384" y="320" width="16" height="16"/>
	</g>
</g>
<g>
	<g>
		<rect x="384" y="416" width="16" height="16"/>
	</g>
</g>
<g>
	<g>
		<rect x="96" y="448" width="16" height="16"/>
	</g>
</g>
<g>
</g>
<g>
</g>
<g>
</g>
<g>
</g>
<g>
</g>
<g>
</g>
<g>
</g>
<g>
</g>
<g>
</g>
<g>
</g>
<g>
</g>
<g>
</g>
<g>
</g>
<g>
</g>
<g>
</g>
</svg>
