<svg height="554pt" viewBox="-136 -17 554 554.66672" width="554pt" xmlns="http://www.w3.org/2000/svg"><path d="m265.214844 17.050781h-264.296875c-4.707031 0-8.527344-3.8125-8.527344-8.523437 0-4.710938 3.820313-8.527344 8.527344-8.527344h264.296875c4.707031 0 8.523437 3.816406 8.523437 8.527344 0 4.710937-3.816406 8.523437-8.523437 8.523437zm0 0"/><path d="m122.492188 520c-1.8125 0-3.625-.582031-5.140626-1.722656l-70.417968-53.261719c-2.132813-1.613281-3.386719-4.132813-3.386719-6.800781v-177.902344c0-3.125 1.703125-5.988281 4.445313-7.488281 2.726562-1.480469 6.0625-1.371094 8.691406.316406l66.820312 42.957031 86.550782-51.933594c2.636718-1.570312 5.917968-1.628906 8.585937-.109374 2.675781 1.519531 4.328125 4.347656 4.328125 7.417968v180.761719c0 2.898437-1.472656 5.597656-3.914062 7.167969l-91.945313 59.238281c-1.40625.910156-3.015625 1.359375-4.617187 1.359375zm-61.890626-66.023438 62.28125 47.109376 83.035157-53.496094v-161.050782l-78.179688 46.90625c-2.785156 1.660157-6.277343 1.617188-9-.140624l-58.136719-37.378907zm0 0"/><path d="m123.347656 173.507812c-1.601562 0-3.210937-.449218-4.609375-1.355468l-66.496093-42.753906c-3.957032-2.546876-5.105469-7.820313-2.5625-11.78125 2.546874-3.957032 7.816406-5.125 11.785156-2.554688l62.039062 39.890625 82.570313-49.550781c4.03125-2.421875 9.277343-1.113282 11.695312 2.921875 2.421875 4.039062 1.117188 9.277343-2.921875 11.699219l-87.109375 52.269531c-1.351562.804687-2.875 1.214843-4.390625 1.214843zm0 0"/><path d="m52.074219 466.742188c-1.824219 0-3.632813-.585938-5.140625-1.726563l-51.15625-38.679687c-2.132813-1.617188-3.386719-4.132813-3.386719-6.800782v-410.828125c0-4.691406 3.800781-8.507812 8.5-8.523437l51.15625-.183594h.027344c2.257812 0 4.421875.894531 6.019531 2.488281 1.601562 1.601563 2.507812 3.777344 2.507812 6.039063v156.445312c0 4.710938-3.820312 8.527344-8.527343 8.527344s-8.527344-3.816406-8.527344-8.527344v-147.886718l-34.097656.113281v398.097656l34.097656 25.785156v-157.164062c0-4.714844 3.820313-8.527344 8.527344-8.527344s8.527343 3.8125 8.527343 8.527344v174.296875c0 3.238281-1.832031 6.195312-4.730468 7.636718-1.203125.597657-2.503906.890626-3.796875.890626zm0 0"/><path d="m214.441406 460.761719c-1.398437 0-2.804687-.339844-4.078125-1.039063-2.738281-1.492187-4.441406-4.367187-4.445312-7.476562l-.152344-176.988282c-.003906-4.714843 3.8125-8.53125 8.519531-8.53125h.007813c4.703125 0 8.523437 3.808594 8.523437 8.511719l.136719 161.371094 33.734375-21.71875v-397.839844h-34.09375l.125 145c.007812 4.710938-3.808594 8.535157-8.515625 8.535157-.003906 0-.003906 0-.011719 0-4.703125 0-8.515625-3.8125-8.519531-8.515626l-.136719-153.539062c0-2.261719.894532-4.433594 2.492188-6.035156 1.597656-1.597656 3.773437-2.496094 6.035156-2.496094h51.152344c4.707031 0 8.523437 3.816406 8.523437 8.527344v411.007812c0 2.898438-1.472656 5.59375-3.90625 7.167969l-50.769531 32.703125c-1.40625.902344-3.007812 1.355469-4.621094 1.355469zm0 0"/><path d="m123.347656 334.660156c-1.605468 0-3.210937-.449218-4.609375-1.355468l-122.429687-78.710938c-2.441406-1.566406-3.917969-4.269531-3.917969-7.167969v-54.511719c0-3.121093 1.710937-5.984374 4.445313-7.480468 2.726562-1.496094 6.066406-1.378906 8.699218.316406l117.96875 75.84375 137.320313-82.402344c2.636719-1.570312 5.917969-1.617187 8.589843-.105468 2.675782 1.515624 4.324219 4.34375 4.324219 7.417968v54.515625c0 2.996094-1.566406 5.773438-4.136719 7.308594l-141.863281 85.117187c-1.351562.804688-2.875 1.214844-4.390625 1.214844zm-113.898437-91.886718 114.054687 73.332031 133.183594-79.914063v-34.625l-128.949219 77.367188c-2.785156 1.660156-6.277343 1.621094-9-.136719l-109.289062-70.261719zm0 0"/><path d="m123.347656 280.148438c-1.601562 0-3.210937-.445313-4.609375-1.355469l-122.429687-78.710938c-2.441406-1.566406-3.917969-4.269531-3.917969-7.167969v-54.511718c0-3.121094 1.710937-5.984375 4.445313-7.480469 2.726562-1.484375 6.070312-1.390625 8.695312.316406l117.972656 75.839844 137.320313-82.390625c2.636719-1.585938 5.917969-1.625 8.589843-.113281 2.675782 1.515625 4.324219 4.351562 4.324219 7.417969v54.511718c0 2.996094-1.566406 5.765625-4.136719 7.308594l-141.863281 85.121094c-1.351562.8125-2.875 1.214844-4.390625 1.214844zm-113.898437-91.886719 114.054687 73.332031 133.183594-79.917969v-34.617187l-128.949219 77.359375c-2.785156 1.664062-6.269531 1.617187-8.996093-.140625l-109.292969-70.253906zm0 0"/><path d="m128.804688 467.863281c-25.742188 0-46.683594-20.9375-46.683594-46.679687 0-25.742188 20.941406-46.679688 46.683594-46.679688 25.738281 0 46.683593 20.9375 46.683593 46.679688 0 25.742187-20.945312 46.679687-46.683593 46.679687zm0-76.3125c-16.339844 0-29.628907 13.296875-29.628907 29.632813 0 16.332031 13.289063 29.632812 29.628907 29.632812 16.339843 0 29.628906-13.300781 29.628906-29.632812 0-16.335938-13.289063-29.632813-29.628906-29.632813zm0 0"/></svg>