<?xml version="1.0" encoding="iso-8859-1"?>
<!-- Generator: Adobe Illustrator 19.0.0, SVG Export Plug-In . SVG Version: 6.00 Build 0)  -->
<svg version="1.1" id="Capa_1" xmlns="http://www.w3.org/2000/svg" xmlns:xlink="http://www.w3.org/1999/xlink" x="0px" y="0px"
	 viewBox="0 0 496 496" style="enable-background:new 0 0 496 496;" xml:space="preserve">
<g>
	<g>
		<g>
			<path d="M351.832,212.672c-1.408-23.84-17.752-43.712-39.832-50.312V104c0-31.28-20.08-57.888-48-67.8V0h-48v36.2
				c-27.92,9.912-48,36.52-48,67.8v58.36c-23.104,6.904-40,28.328-40,53.64v32h-16V131.312l25.296-25.296L104,17.216l-33.296,88.8
				L96,131.312V248c-17.648,0-32,14.352-32,32s14.352,32,32,32v184h16V312h64v184h128v-65.28c5.24,0.752,10.552,1.28,16,1.28
				c61.76,0,112-50.24,112-112C432,269.304,398.12,226.432,351.832,212.672z M96,296c-8.824,0-16-7.176-16-16
				c0-8.824,7.176-16,16-16V296z M232,16h16v16h-16V16z M184,160v-56c0-30.872,25.128-56,56-56s56,25.128,56,56v56v4.688l-25.2,25.2
				l-6.376-51L280,123.312V88h-80v35.312l15.576,15.576l-6.376,51l-25.2-25.2V160z M251.936,168h-23.88l4.36-34.888L216,116.688V104
				h48v12.688l-16.424,16.424L251.936,168z M104,116.688l-14.704-14.704L104,62.784l14.704,39.2L104,116.688z M176,296h-64v-32h32
				v-48c0-18.608,12.84-34.16,30.08-38.608L204.688,208l18.376-0.016l3-23.984h27.88l3,23.984L275.312,208l30.608-30.608
				c15.08,3.888,26.696,16.256,29.392,31.776C330.288,208.48,325.208,208,320,208c-59.056,0-107.464,45.976-111.592,104H192v-96h-16
				V296z M213.04,353.256L192,346.24V328h16.408C209.024,336.72,210.528,345.192,213.04,353.256z M232,480h-40V363.096l29.312,9.776
				c3.08,5.728,6.696,11.112,10.688,16.184V480z M288,480h-40v-74.336c11.576,9.744,25.144,17.176,40,21.616V480z M320,416
				c-52.936,0-96-43.064-96-96c0-52.936,43.064-96,96-96c52.936,0,96,43.064,96,96C416,372.936,372.936,416,320,416z"/>
			<path d="M320,240c-44.112,0-80,35.888-80,80s35.888,80,80,80c16.312,0,32-4.88,45.384-14.112l-9.08-13.168
				C345.6,380.104,333.048,384,320,384c-35.288,0-64-28.712-64-64c0-35.288,28.712-64,64-64c35.288,0,64,28.712,64,64
				c0,16.824-6.472,32.704-18.208,44.72l11.44,11.184C391.912,360.872,400,341.024,400,320C400,275.888,364.112,240,320,240z"/>
		</g>
	</g>
</g>
<g>
</g>
<g>
</g>
<g>
</g>
<g>
</g>
<g>
</g>
<g>
</g>
<g>
</g>
<g>
</g>
<g>
</g>
<g>
</g>
<g>
</g>
<g>
</g>
<g>
</g>
<g>
</g>
<g>
</g>
</svg>
