<?xml version="1.0"?>
<svg xmlns="http://www.w3.org/2000/svg" viewBox="0 0 64 64" width="512" height="512"><g id="outline"><rect x="26" y="16" width="2" height="2"/><rect x="36" y="16" width="2" height="2"/><path d="M49.851,8.474a1,1,0,0,0-.975-.466L42,8.867V5a3,3,0,0,0-3-3H25a3,3,0,0,0-3,3V27a3,3,0,0,0,3,3H39a3,3,0,0,0,3-3V15.133l6.876.859A.861.861,0,0,0,49,16a1,1,0,0,0,.832-1.555L48.2,12l1.63-2.445A1,1,0,0,0,49.851,8.474ZM40,20H24V14H40ZM24,10h5v2H24Zm16,0v2H35V10Zm-7,2H31V10h2ZM25,4H39a1,1,0,0,1,1,1V8H24V5A1,1,0,0,1,25,4ZM40,27a1,1,0,0,1-1,1H25a1,1,0,0,1-1-1V22H40Zm6.168-14.445.788,1.182L42,13.117V10.883l4.956-.62-.788,1.182A1,1,0,0,0,46.168,12.555Z"/><path d="M3.293,28.707l8.761,8.761A3.9,3.9,0,0,0,12,38V61.99L51,62a1,1,0,0,0,1-1V38a3.9,3.9,0,0,0-.054-.532l8.761-8.761a1,1,0,0,0,0-1.414l-5-5a1,1,0,0,0-1.414,0L42.586,34H21.414L9.707,22.293a1,1,0,0,0-1.414,0l-5,5A1,1,0,0,0,3.293,28.707ZM9.414,32,13,28.414,18.586,34H16a3.976,3.976,0,0,0-3.092,1.494Zm12.805,4,2.767,11.069L20,53.925V36Zm8.153,3.663L29.326,36h3.71ZM14,38a2,2,0,0,1,2-2h2v5H14Zm0,5h4v2H14Zm4,4v2H14V47Zm-4,4h4v8.99H14ZM44,36V60H24.909L41.524,36Zm6,24H46V51h4Zm0-11H46V47h4Zm-4-4V43h4v2Zm0-4V36h2a2,2,0,0,1,2,2v3Zm2-7H45.414L51,28.414,54.586,32l-3.494,3.494A3.976,3.976,0,0,0,48,34Zm7-9.586L58.586,28,56,30.586,52.414,27ZM39.091,36,22.476,60H20V57.325L35.509,36ZM27.246,36l1.633,5.716-2.358,3.243L24.281,36ZM9,24.414,11.586,27,8,30.586,5.414,28Z"/></g></svg>
