<?xml version="1.0" encoding="iso-8859-1"?>
<!-- Generator: Adobe Illustrator 19.0.0, SVG Export Plug-In . SVG Version: 6.00 Build 0)  -->
<svg version="1.1" id="Layer_1" xmlns="http://www.w3.org/2000/svg" xmlns:xlink="http://www.w3.org/1999/xlink" x="0px" y="0px"
	 viewBox="0 0 333.332 333.332" style="enable-background:new 0 0 333.332 333.332;" xml:space="preserve">
<g>
	<g>
		<path d="M250,211.022v-0.767c0-5.444-3.9-10.056-9.283-10.961l-22.222-3.7c-3.228-0.544-6.511,0.361-9.011,2.478
			c-1.1,0.933-1.95,2.072-2.606,3.317l-1.322-0.289v-13.728c16.789-12.117,27.778-31.794,27.778-54.039v-11.111h5.556h5.556h11.111
			v-11.111h-11.111V77.778C244.444,34.889,209.556,0,166.667,0c-42.889,0-77.778,34.889-77.778,77.778v33.333H77.778v11.111h11.111
			h5.556H100v11.111c0,22.244,10.989,41.922,27.778,54.039V201.1l-1.322,0.294c-0.656-1.239-1.506-2.383-2.606-3.317
			c-2.494-2.117-5.783-3.017-9.011-2.478l-22.233,3.7c-5.372,0.906-9.272,5.511-9.272,10.961v0.761
			c-32.756,7.756-55.556,36.467-55.556,70.233v52.078h77.778h33.333H150h33.333h11.111h33.333h77.778v-52.078
			C305.556,247.489,282.75,218.778,250,211.022z M38.889,283.333h27.778V300H55.556c0-6.128-4.983-11.111-11.111-11.111h-5.556
			V283.333z M83.333,322.222H38.889V300h5.556c0,6.128,4.983,11.111,11.111,11.111h11.111c6.128,0,11.111-4.983,11.111-11.111
			v-16.667c0-6.128-4.983-11.111-11.111-11.111H39.589c3.461-23.683,20.333-43.111,43.744-49.711V322.222z M172.222,26.822
			c0-1.461,0.594-2.894,1.628-3.928l9.567-9.567c15.222,3.962,28.327,13.145,37.289,25.562h-12.372
			c-7.656,0-13.889,6.228-13.889,13.889c0,1.528-1.244,2.778-2.778,2.778h-13.889c-3.061,0-5.556-2.489-5.556-5.556V26.822z
			 M166.667,11.111c1.044,0,2.067,0.111,3.1,0.156l-3.772,3.772c-3.15,3.144-4.883,7.333-4.883,11.783V50
			c0,9.189,7.478,16.667,16.667,16.667h13.889c7.656,0,13.889-6.228,13.889-13.889c0-1.528,1.244-2.778,2.778-2.778h18.861
			c3.9,8.467,6.139,17.856,6.139,27.778v33.333h-11.111V94.444c0-6.128-4.983-11.111-11.111-11.111h-22.222
			c-6.128,0-11.111,4.983-11.111,11.111v16.667h-44.444v-8.333c0-1.528,1.244-2.778,2.778-2.778C143.767,100,150,93.772,150,86.111
			V69.444c0-7.661-6.233-13.889-13.889-13.889H125c-7.656,0-13.889,6.228-13.889,13.889c0,1.528-1.244,2.778-2.778,2.778h-8.05
			C103.122,38.056,131.783,11.111,166.667,11.111z M211.111,94.444v16.667h-22.222V94.444H211.111z M100,83.333h8.333
			c7.656,0,13.889-6.228,13.889-13.889c0-1.528,1.244-2.778,2.778-2.778h11.111c1.533,0,2.778,1.25,2.778,2.778v16.667
			c0,1.528-1.244,2.778-2.778,2.778c-7.656,0-13.889,6.228-13.889,13.889v8.333H100V83.333z M111.111,133.333v-11.111h111.111
			v11.111c0,21.094-11.822,39.483-29.189,48.883c-2.583-5.872-8.439-9.994-15.256-9.994h-22.222c-6.817,0-12.672,4.122-15.25,9.994
			C122.933,172.817,111.111,154.428,111.111,133.333z M182.739,186.5c-5.089,1.539-10.483,2.389-16.072,2.389
			s-10.983-0.85-16.072-2.389c0.9-1.861,2.761-3.167,4.961-3.167h22.222C179.978,183.333,181.839,184.639,182.739,186.5z
			 M127.778,212.483l11.111-2.472v-16.15c8.467,3.9,17.856,6.139,27.778,6.139s19.311-2.239,27.778-6.139v16.15l11.111,2.472v26.406
			h-77.778V212.483z M105.555,322.222H94.444v-27.778h11.111V322.222z M127.778,322.222h-11.111v-44.444h11.111V322.222z
			 M150,322.222h-11.111v-27.778H150V322.222z M172.222,322.222h-11.111v-44.444h11.111V322.222z M194.444,322.222h-11.111v-27.778
			h11.111V322.222z M216.667,322.222h-11.111v-44.444h11.111V322.222z M216.667,266.666h-11.111
			c-6.128,0-11.111,4.983-11.111,11.111v5.556h-11.111v-5.556c0-6.128-4.983-11.111-11.111-11.111h-11.111
			c-6.128,0-11.111,4.983-11.111,11.111v5.556H138.89v-5.556c0-6.128-4.983-11.111-11.111-11.111h-11.111
			c-6.128,0-11.111,4.983-11.111,11.111v5.556H94.444v-73.072l22.223-3.7V250h100v-43.439l22.222,3.7v73.072h-11.111v-5.556
			C227.778,271.649,222.795,266.666,216.667,266.666z M238.889,322.222h-11.111v-27.778h11.111V322.222z M294.443,322.223H250
			v-0.001v-99.706c8.344,2.35,15.844,6.328,22.222,11.556v18.706c0,1.528-1.244,2.778-2.778,2.778
			c-7.656,0-13.889,6.228-13.889,13.889v11.111c0,7.661,6.233,13.889,13.889,13.889h25V322.223z M294.444,283.334h-25
			c-1.533,0-2.778-1.25-2.778-2.778v-11.111c0-1.528,1.244-2.778,2.778-2.778c7.656,0,13.889-6.228,13.889-13.889v-6.767
			c7.039,10,11.111,22.167,11.111,35.245V283.334z"/>
	</g>
</g>
<g>
</g>
<g>
</g>
<g>
</g>
<g>
</g>
<g>
</g>
<g>
</g>
<g>
</g>
<g>
</g>
<g>
</g>
<g>
</g>
<g>
</g>
<g>
</g>
<g>
</g>
<g>
</g>
<g>
</g>
</svg>
