<svg height="496pt" viewBox="0 0 496 496" width="496pt" xmlns="http://www.w3.org/2000/svg"><path d="m136 168c0 4.417969-3.582031 8-8 8s-8-3.582031-8-8 3.582031-8 8-8 8 3.582031 8 8zm0 0"/><path d="m216 168c0 4.417969-3.582031 8-8 8s-8-3.582031-8-8 3.582031-8 8-8 8 3.582031 8 8zm0 0"/><path d="m295.382812 294.359375-71.382812-20.390625v-16.929688c11.3125-11.101562 19.335938-25.527343 22.488281-41.6875 18.960938-3.136718 33.511719-19.519531 33.511719-39.351562 0-19.3125-13.769531-35.472656-32-39.191406v-13.496094l13.089844-13.089844c12.191406-12.191406 18.910156-28.40625 18.910156-45.65625 0-35.597656-28.96875-64.566406-64.566406-64.566406h-19.53125c-60.148438 0-116.664063 29.425781-151.160156 78.703125-3.101563 4.441406-4.742188 9.640625-4.742188 15.050781 0 14.46875 11.777344 26.246094 26.246094 26.246094h21.753906v16.808594c-18.230469 3.71875-32 19.878906-32 39.191406 0 19.832031 14.550781 36.214844 33.511719 39.34375 3.152343 16.160156 11.175781 30.585938 22.488281 41.6875v16.929688l-71.382812 20.398437c-23.914063 6.832031-40.617188 28.976563-40.617188 53.847656v147.792969h336v-147.792969c0-24.871093-16.703125-47.015625-40.617188-53.847656zm-140.734374 24.929687-28.152344 18.765626-5.167969-46.527344zm13.351562 10.328126 24 16v134.382812h-48v-134.382812zm13.351562-10.328126 33.320313-27.769531-5.167969 46.527344zm82.648438-143.289062c0 10.414062-6.710938 19.214844-16 22.527344v-45.046875c9.289062 3.304687 16 12.105469 16 22.519531zm-197.753906-72c-5.644532 0-10.246094-4.601562-10.246094-10.246094 0-2.113281.640625-4.152344 1.847656-5.882812 31.503906-45 83.113282-71.871094 138.046875-71.871094h19.53125c26.78125 0 48.574219 21.792969 48.574219 48.566406 0 12.976563-5.046875 25.167969-14.222656 34.34375l-5.089844 5.089844zm53.753906 16h112v16h-128v-16zm-48 56c0-10.414062 6.710938-19.214844 16-22.527344v45.046875c-9.289062-3.304687-16-12.105469-16-22.519531zm32 24v-48h128v48c0 35.289062-28.710938 64-64 64s-64-28.710938-64-64zm64 80c14.574219 0 28.214844-3.984375 40-10.824219v7.082031l-40 33.335938-40-33.335938v-7.082031c11.785156 6.839844 25.425781 10.824219 40 10.824219zm-152 136h16v16h16v-32h-32v-51.792969c0-17.765625 11.929688-33.582031 29.007812-38.464843l60.328126-17.238282 8.160156 73.441406 14.503906-9.664062v123.71875h-112zm304-16h-32v24h-32v16h48v-24h16v64h-112v-123.71875l14.496094 9.664062 8.160156-73.441406 60.328125 17.238282c17.085937 4.882812 29.015625 20.699218 29.015625 38.464843zm0 0"/><path d="m160 352h16v16h-16zm0 0"/><path d="m160 400h16v16h-16zm0 0"/><path d="m160 448h16v16h-16zm0 0"/><path d="m168 240c17.648438 0 32-14.351562 32-32h-16c0 8.824219-7.175781 16-16 16s-16-7.175781-16-16h-16c0 17.648438 14.351562 32 32 32zm0 0"/><path d="m224 448h16v16h-16zm0 0"/><path d="m256 320h16v16h-16zm0 0"/><path d="m32 448h16v16h-16zm0 0"/><path d="m64 320h16v16h-16zm0 0"/><path d="m48 368h48v16h-48zm0 0"/><path d="m240 368h48v16h-48zm0 0"/><path d="m80 448h-16v16h32v-32h16v-16h-32zm0 0"/><path d="m160 40h16v16h-16zm0 0"/><path d="m144 56h16v16h-16zm0 0"/><path d="m160 72h16v16h-16zm0 0"/><path d="m176 56h16v16h-16zm0 0"/><path d="m496 260.945312v-24c0-11.554687-9.390625-20.945312-20.945312-20.945312-3.230469 0-6.46875.769531-9.367188 2.207031l-17.6875 8.847657v-27.054688h-16v-96h8v-48h-64v34.585938l-40 16v29.414062h48v64h-16v75.054688l-16 8v104.257812l32 32v48.039062c0 15.800782 12.847656 28.648438 28.648438 28.648438h38.703124c15.800782 0 28.648438-12.847656 28.648438-28.648438 0-3.078124-.496094-6.121093-1.472656-9.0625l-30.527344-91.585937v-6.703125h48v-48h-48v-27.054688zm-23.160156-28.425781c3.136718-1.566406 7.160156.9375 7.160156 4.425781v14.109376l-32 16v-22.109376zm-40.839844 63.480469h-16v16h16v16h-16v16h16v16h-32v-64c0-10.433594-6.6875-19.328125-16-22.632812v-25.367188h48v16h-16v16h16zm-40-224h32v16h-32zm-40 48v-2.585938l32-12.796874v15.382812zm48-16h16v96h-16zm32 112v16h-48v-16zm-64 164.6875v-87.742188l9.34375-4.671874c3.746094.664062 6.65625 3.789062 6.65625 7.726562v100.6875zm95.34375 82.648438c.441406 1.304687.65625 2.65625.65625 4.015624 0 6.976563-5.671875 12.648438-12.648438 12.648438h-38.703124c-6.976563 0-12.648438-5.671875-12.648438-12.648438v-91.351562h34.230469zm16.65625-135.335938v16h-32v-16zm0 0"/></svg>