<?xml version="1.0" encoding="iso-8859-1"?>
<!-- Generator: Adobe Illustrator 19.0.0, SVG Export Plug-In . SVG Version: 6.00 Build 0)  -->
<svg version="1.1" id="Layer_1" xmlns="http://www.w3.org/2000/svg" xmlns:xlink="http://www.w3.org/1999/xlink" x="0px" y="0px"
	 viewBox="0 0 512.001 512.001" style="enable-background:new 0 0 512.001 512.001;" xml:space="preserve">
<g>
	<g>
		<path d="M345.536,363.804c-4.624,0-8.37,3.748-8.37,8.37c0,22.539-18.338,40.876-40.877,40.876s-40.876-18.337-40.876-40.876
			c0-4.623-3.746-8.37-8.37-8.37c-4.624,0-8.37,3.748-8.37,8.37c0,31.769,25.847,57.616,57.616,57.616
			c31.771,0,57.617-25.847,57.617-57.616C353.906,367.551,350.159,363.804,345.536,363.804z"/>
	</g>
</g>
<g>
	<g>
		<path d="M447.818,204.874l-1.572-3.738c-7.014-16.658-12.382-35.241-15.952-55.232c-3.111-17.418-9.508-33.837-19.012-48.802
			c-2.479-3.902-7.651-5.057-11.553-2.578c-3.903,2.479-5.057,7.65-2.579,11.553c8.331,13.116,13.938,27.507,16.665,42.77
			c3.236,18.127,7.887,35.211,13.849,50.904H164.907c5.963-15.693,10.612-32.776,13.849-50.904
			c10.169-56.93,59.597-98.249,117.53-98.249c30.698,0,59.866,11.625,82.132,32.736c3.354,3.181,8.651,3.039,11.833-0.315
			c3.182-3.355,3.04-8.652-0.315-11.833c-25.389-24.072-58.647-37.329-93.649-37.329c-66.053,0-122.412,47.122-134.008,112.045
			c-3.572,19.993-8.94,38.577-15.955,55.236l-1.572,3.736c-1.089,2.584-0.81,5.541,0.741,7.878c1.551,2.336,4.168,3.74,6.973,3.74
			h19.941l-2.363,24.466c-3.139,32.592,11.361,64.791,37.839,84.031l45.816,33.292c12.738,9.252,27.664,13.878,42.588,13.878
			c14.924,0,29.849-4.627,42.581-13.879l45.812-33.291c26.49-19.249,40.99-51.449,37.838-84.033l-2.363-24.464h19.948
			c2.805,0,5.422-1.404,6.973-3.74C448.628,210.416,448.907,207.459,447.818,204.874z M291.821,216.49h8.928v31.248
			c0,2.462-2.002,4.464-4.464,4.464s-4.464-2.002-4.464-4.464V216.49z M374.84,311.446l-45.812,33.291
			c-19.58,14.228-45.9,14.228-65.49,0l-45.813-33.291c-21.705-15.771-33.591-42.166-31.018-68.882l2.518-26.072h49.979
			c-0.617,1.166-0.97,2.494-0.97,3.906v13.388c0,4.622,3.746,8.37,8.37,8.37c4.624,0,8.37-3.748,8.37-8.37v-13.388
			c0-1.412-0.353-2.74-0.97-3.906h21.077v31.248c0,11.692,9.512,21.204,21.204,21.204s21.204-9.512,21.204-21.204v-31.248h21.077
			c-0.617,1.166-0.97,2.494-0.97,3.906v13.388c0,4.622,3.746,8.37,8.37,8.37c4.624,0,8.37-3.748,8.37-8.37v-13.388
			c0-1.412-0.353-2.74-0.97-3.906h49.974l2.518,26.073C408.44,269.274,396.554,295.668,374.84,311.446z"/>
	</g>
</g>
<g>
	<g>
		<path d="M319.162,286.188h-45.756c-4.624,0-8.37,3.748-8.37,8.37c0,4.622,3.746,8.37,8.37,8.37h45.756
			c4.624,0,8.37-3.748,8.37-8.37C327.532,289.935,323.786,286.188,319.162,286.188z"/>
	</g>
</g>
<g>
	<g>
		<path d="M411.22,495.26h-58.572v-57.287c0-4.622-3.746-8.37-8.37-8.37s-8.37,3.748-8.37,8.37v57.287h-15.251v-40.735
			c0-4.623-3.746-8.37-8.37-8.37c-4.624,0-8.37,3.748-8.37,8.37v40.735h-15.253v-40.735c0-4.623-3.746-8.37-8.37-8.37
			c-4.624,0-8.37,3.748-8.37,8.37v40.735h-15.253v-57.287c0-4.622-3.746-8.37-8.37-8.37s-8.37,3.748-8.37,8.37v57.287h-6.246
			c-4.624,0-8.37,3.748-8.37,8.37c0,4.622,3.746,8.37,8.37,8.37H411.22c4.624,0,8.37-3.748,8.37-8.37
			C419.59,499.007,415.842,495.26,411.22,495.26z"/>
	</g>
</g>
<g>
	<g>
		<path d="M202.434,495.261h-19.419v-37.578c24.565-10.564,40.68-34.7,40.68-61.87c0-15.738-5.549-30.909-15.457-42.914
			c0.189-0.117,0.372-0.243,0.56-0.358c3.947-2.405,5.197-7.555,2.793-11.503c-2.405-3.947-7.555-5.197-11.504-2.793
			c-3.537,2.155-6.885,4.618-9.94,7.311c-15.171,13.331-23.873,32.552-23.873,52.736v105.34c0,4.622,3.746,8.37,8.37,8.37h27.789
			c4.624,0,8.37-3.748,8.37-8.37S207.058,495.261,202.434,495.261z M183.017,398.29c0-12.675,4.518-24.845,12.583-34.424
			c7.286,8.975,11.355,20.257,11.355,31.947c0,17.864-9.263,33.987-23.938,43.059V398.29z"/>
	</g>
</g>
<g>
	<g>
		<path d="M415.299,360.547c-5.772-9.033-13.666-16.748-22.829-22.311c-3.952-2.397-9.099-1.141-11.499,2.811
			c-2.398,3.952-1.139,9.099,2.811,11.498c0.183,0.111,0.357,0.236,0.538,0.348c-6.803,8.194-11.546,17.852-13.872,28.392
			c-0.997,4.514,1.856,8.98,6.37,9.977c0.608,0.134,1.214,0.199,1.811,0.199c3.841,0,7.304-2.662,8.166-6.568
			c1.719-7.789,5.192-14.939,10.174-21.031c1.528,1.809,2.951,3.705,4.224,5.697c1.598,2.5,4.301,3.865,7.061,3.865
			c1.542,0,3.102-0.426,4.499-1.318C416.647,369.618,417.787,364.442,415.299,360.547z"/>
	</g>
</g>
<g>
	<g>
		<path d="M294.787,134.968c-14.461,0-26.226,11.765-26.226,26.226s11.765,26.226,26.226,26.226
			c14.461,0,26.226-11.765,26.226-26.226S309.249,134.968,294.787,134.968z M294.787,170.68c-5.231,0-9.486-4.255-9.486-9.486
			c0-5.231,4.255-9.486,9.486-9.486c5.231,0,9.486,4.255,9.486,9.486C304.274,166.425,300.018,170.68,294.787,170.68z"/>
	</g>
</g>
<g>
	<g>
		<path d="M460.804,375.604v-9.263c5.164,5.375,12.414,8.731,20.437,8.731c15.638,0,28.359-12.721,28.359-28.359
			c0-15.636-12.721-28.358-28.359-28.358c-10.767,0-20.152,6.033-24.953,14.896c-1.155-0.6-2.464-0.945-3.856-0.945
			c-4.624,0-8.37,3.748-8.37,8.37v34.235H429.16c-28.277,0-51.283,23.005-51.283,51.283v28.225c0,4.622,3.746,8.37,8.37,8.37
			c4.624,0,8.37-3.748,8.37-8.37v-28.226c0-11.941,6.092-22.485,15.331-28.691c-5.551,8.194-8.797,18.07-8.797,28.691v28.225
			c0,28.277,23.005,51.283,51.283,51.283s51.283-23.005,51.283-51.283v-28.225C503.717,400.766,485.113,379.613,460.804,375.604z
			 M481.243,335.096c6.407,0,11.619,5.212,11.619,11.618s-5.212,11.619-11.619,11.619c-6.406,0-11.618-5.212-11.618-11.619
			C469.625,340.306,474.837,335.096,481.243,335.096z M486.977,454.417c0,19.048-15.495,34.543-34.543,34.543
			c-19.047,0-34.543-15.496-34.543-34.543v-5.743h69.086V454.417z M486.977,431.936h-69.086v-5.743
			c0-19.047,15.496-34.543,34.543-34.543s34.543,15.496,34.543,34.543V431.936z"/>
	</g>
</g>
<g>
	<g>
		<path d="M388.077,252.149h-31.248c-4.622,0-8.37,3.748-8.37,8.37c0,4.622,3.746,8.37,8.37,8.37h31.248
			c4.624,0,8.37-3.748,8.37-8.37C396.447,255.897,392.701,252.149,388.077,252.149z"/>
	</g>
</g>
<g>
	<g>
		<path d="M376.917,277.191h-20.088c-4.624,0-8.37,3.748-8.37,8.37c0,4.622,3.746,8.37,8.37,8.37h20.088
			c4.624,0,8.37-3.748,8.37-8.37S381.54,277.191,376.917,277.191z"/>
	</g>
</g>
<g>
	<g>
		<path d="M235.742,252.149h-31.248c-4.624,0-8.37,3.748-8.37,8.37c0,4.622,3.746,8.37,8.37,8.37h31.248
			c4.624,0,8.37-3.748,8.37-8.37C244.112,255.897,240.365,252.149,235.742,252.149z"/>
	</g>
</g>
<g>
	<g>
		<path d="M235.742,277.191h-20.088c-4.624,0-8.37,3.748-8.37,8.37c0,4.622,3.746,8.37,8.37,8.37h20.088
			c4.624,0,8.37-3.748,8.37-8.37S240.365,277.191,235.742,277.191z"/>
	</g>
</g>
<g>
	<g>
		<path d="M304.096,309.066h-15.624c-4.624,0-8.37,3.748-8.37,8.37c0,4.623,3.746,8.37,8.37,8.37h15.624
			c4.624,0,8.37-3.748,8.37-8.37C312.466,312.813,308.72,309.066,304.096,309.066z"/>
	</g>
</g>
<g>
	<g>
		<path d="M192.246,56.396c-16.35-24.201-42.577-39.499-71.329-42.001V8.37c0-4.623-3.746-8.37-8.37-8.37
			c-4.624,0-8.37,3.748-8.37,8.37v6.042c-46.332,4.019-83.344,41.03-87.362,87.362h-6.044c-4.624,0-8.37,3.748-8.37,8.37
			c0,4.623,3.746,8.37,8.37,8.37h6.042c4.02,46.332,41.031,83.345,87.364,87.364v11.117c0,4.622,3.746,8.37,8.37,8.37
			c4.624,0,8.37-3.748,8.37-8.37v-11.115c3.68-0.318,7.336-0.821,10.93-1.555c4.53-0.924,7.453-5.345,6.529-9.873
			c-0.924-4.531-5.346-7.453-9.874-6.529c-2.498,0.509-5.032,0.891-7.584,1.157v-24.52c13.532-2.059,25.827-9.063,34.57-19.94
			c2.896-3.604,2.322-8.871-1.28-11.767c-3.601-2.896-8.871-2.322-11.767,1.28c-5.535,6.886-13.112,11.548-21.521,13.417v-29.035
			h16.246c4.624,0,8.37-3.748,8.37-8.37s-3.746-8.37-8.37-8.37h-16.246V72.758c13.469,3.04,24.628,13.247,28.502,26.886
			c1.263,4.447,5.888,7.028,10.34,5.764c4.446-1.263,7.028-5.891,5.764-10.339c-5.916-20.824-23.639-36.084-44.606-39.337V31.215
			c23.173,2.448,44.229,14.971,57.457,34.554c2.587,3.83,7.792,4.837,11.621,2.25C193.826,65.431,194.833,60.228,192.246,56.396z
			 M104.176,31.21v24.504C80.501,59.34,61.741,78.1,58.115,101.776H33.611C37.517,64.677,67.078,35.116,104.176,31.21z
			 M104.176,72.75v29.024H75.152C78.379,87.351,89.753,75.978,104.176,72.75z M104.176,189.081
			c-37.098-3.907-66.659-33.468-70.565-70.566h24.504c3.626,23.675,22.385,42.435,46.061,46.061V189.081z M104.176,147.539
			c-14.423-3.226-25.797-14.601-29.024-29.024h29.024C104.176,118.515,104.176,147.539,104.176,147.539z"/>
	</g>
</g>
<g>
	<g>
		<path d="M162.355,455.821c-2.113-4.112-7.16-5.732-11.268-3.619c-24.174,12.422-51.755,16.401-78.447,11.453l3.955-22.832
			c26.624,4.984,54.686-1.158,76.657-17.112c3.742-2.716,4.572-7.95,1.856-11.691c-2.717-3.741-7.953-4.57-11.691-1.855
			c-20.338,14.766-46.965,19.414-71.237,12.428c-2.282-0.656-4.741-0.312-6.757,0.95c-2.017,1.262-3.399,3.322-3.804,5.665
			l-6.84,39.484c-0.748,4.317,1.96,8.481,6.208,9.547c11.258,2.827,22.719,4.225,34.134,4.225c21.994,0,43.81-5.194,63.616-15.372
			C162.848,464.978,164.469,459.932,162.355,455.821z"/>
	</g>
</g>
<g>
	<g>
		<path d="M171.436,351.418l-17.45-17.449c-2.892-2.893-7.372-3.22-10.631-0.993L105.23,294.85
			c-2.467-2.468-6.208-3.145-9.382-1.701l-14.447,6.567L47.82,266.135c0.65-0.366,1.263-0.817,1.816-1.369l7.398-7.398
			c3.269-3.269,3.269-8.569,0-11.836c-3.27-3.269-8.569-3.269-11.838,0l-7.398,7.398c-0.552,0.552-1.003,1.166-1.369,1.815
			l-8.54-8.54c-3.27-3.269-8.569-3.269-11.838,0s-3.269,8.569,0,11.836l101.655,101.654c-0.951,2.903-0.28,6.221,2.028,8.529
			l19.685,19.685c1.635,1.635,3.777,2.452,5.919,2.452c2.142,0,4.284-0.817,5.919-2.452c3.269-3.269,3.269-8.568,0-11.836
			l-13.318-13.318l10.58-10.581l11.083,11.082c3.268,3.269,8.568,3.27,11.836,0C174.706,359.986,174.706,354.686,171.436,351.418z
			 M128.901,347.217l-34.86-34.86l3.452-1.569l33.918,33.919L128.901,347.217z"/>
	</g>
</g>
<g>
</g>
<g>
</g>
<g>
</g>
<g>
</g>
<g>
</g>
<g>
</g>
<g>
</g>
<g>
</g>
<g>
</g>
<g>
</g>
<g>
</g>
<g>
</g>
<g>
</g>
<g>
</g>
<g>
</g>
</svg>
