<svg height="496pt" viewBox="0 0 496 496" width="496pt" xmlns="http://www.w3.org/2000/svg"><path d="m136 360c13.230469 0 24-10.769531 24-24s-10.769531-24-24-24-24 10.769531-24 24c0 1.945312.296875 3.816406.734375 5.632812l-27.199219 18.855469c-5.695312-5.222656-13.214844-8.488281-21.535156-8.488281-17.648438 0-32 14.351562-32 32s14.351562 32 32 32c8.320312 0 15.839844-3.265625 21.535156-8.488281l27.199219 18.855469c-.4375 1.816406-.734375 3.6875-.734375 5.632812 0 13.230469 10.769531 24 24 24s24-10.769531 24-24-10.769531-24-24-24c-5.464844 0-10.449219 1.902344-14.488281 4.992188l-27.296875-18.921876c1.074218-3.183593 1.785156-6.535156 1.785156-10.070312s-.710938-6.886719-1.785156-10.070312l27.296875-18.921876c4.039062 3.089844 9.023437 4.992188 14.488281 4.992188zm0-32c4.414062 0 8 3.59375 8 8s-3.585938 8-8 8-8-3.59375-8-8 3.585938-8 8-8zm-72 72c-8.824219 0-16-7.175781-16-16s7.175781-16 16-16 16 7.175781 16 16-7.175781 16-16 16zm72 24c4.414062 0 8 3.59375 8 8s-3.585938 8-8 8-8-3.59375-8-8 3.585938-8 8-8zm0 0"/><path d="m320 248c17.648438 0 32-14.351562 32-32h-16c0 8.824219-7.175781 16-16 16s-16-7.175781-16-16h-16c0 17.648438 14.351562 32 32 32zm0 0"/><path d="m496 370.601562c0-24.144531-15.390625-45.496093-38.289062-53.128906l-81.710938-27.242187v-22.40625c13.6875-11.320313 23.824219-26.726563 28.710938-44.304688 19.816406-2.359375 35.289062-19.078125 35.289062-39.519531v-79.207031c0-26.296875-17.929688-49.265625-43.105469-55.871094l-.847656-1.273437c-19.878906-29.832032-53.175781-47.648438-89.039063-47.648438-59.007812 0-107.007812 48-107.007812 107.007812v76.992188c0 20.441406 15.472656 37.160156 35.289062 39.519531 4.886719 17.578125 15.023438 32.984375 28.710938 44.304688v22.40625l-66.097656 22.035156c-20.558594-24.585937-51.421875-40.265625-85.902344-40.265625-61.761719 0-112 50.238281-112 112s50.238281 112 112 112c30.433594 0 58.03125-12.238281 78.230469-32h305.769531zm-91.28125-53.929687-30.910156 61.824219-41.953125-41.960938 37.847656-31.542968zm-76.71875-164.671875v16h-16v-16h-64v-8.40625c14.449219-1.335938 28.144531-6.242188 40-14.355469v14.761719h8c17.382812 0 33.96875-5.167969 48-14.769531v14.769531h11.160156c13.503906 0 26.328125-4.433594 36.839844-12.230469v20.230469zm-80 16h48v8c0 4.40625-3.585938 8-8 8h-32c-4.414062 0-8-3.59375-8-8zm96 0h48v8c0 4.40625-3.585938 8-8 8h-32c-4.414062 0-8-3.59375-8-8zm63.664062 38.632812c.167969-2.199218.335938-4.394531.335938-6.632812v-38.527344c9.289062 3.3125 16 12.113282 16 22.527344 0 10.535156-6.871094 19.414062-16.335938 22.632812zm-100.65625-190.632812c30.503907 0 58.816407 15.152344 75.726563 40.527344l4.457031 6.664062 3.242188.648438c19.445312 3.894531 33.566406 21.121094 33.566406 40.953125v47.40625c-4.671875-3.535157-10.054688-6.183594-16-7.390625v-40.808594h-16v5.351562c-7.671875 10.382813-19.238281 17.046876-32 18.390626v-35.015626l-15.03125 14.992188c-11.167969 11.175781-25.496094 18.066406-40.96875 19.832031v-34.824219l-15.03125 14.992188c-11.167969 11.175781-25.503906 18.015625-40.96875 19.785156v-23.503906h-16v40.808594c-5.945312 1.214844-11.328125 3.855468-16 7.390625v-45.191407c0-50.175781 40.832031-91.007812 91.007812-91.007812zm-91.007812 168c0-10.414062 6.710938-19.214844 16-22.527344v38.527344c0 2.238281.167969 4.433594.335938 6.632812-9.464844-3.21875-16.335938-12.097656-16.335938-22.632812zm32 16v-1.472656c2.511719.898437 5.183594 1.472656 8 1.472656h32c10.414062 0 19.214844-6.710938 22.527344-16h18.953125c3.3125 9.289062 12.113281 16 22.527343 16h32c2.816407 0 5.488282-.574219 8-1.472656v1.472656c0 39.695312-32.296874 72-72 72-39.703124 0-72.007812-32.304688-72.007812-72zm72 88c14.40625 0 27.984375-3.550781 40-9.710938v13.96875l-40 33.335938-40-33.335938v-13.96875c12.015625 6.160157 25.59375 9.710938 40 9.710938zm-49.695312 17 37.847656 31.542969-41.953125 41.960937-30.910157-61.824218zm-50.359376 16.785156 41.855469 83.71875 50.199219-50.191406v92.6875h-108.214844c12.703125-18.160156 20.214844-40.207031 20.214844-64 0-21.289062-6.070312-41.128906-16.425781-58.097656zm-107.945312 158.214844c-52.9375 0-96-43.0625-96-96s43.0625-96 96-96 96 43.0625 96 96-43.0625 96-96 96zm368-32h-48v-64h-16v64h-88v-92.6875l50.191406 50.191406 41.855469-83.71875 32.59375 10.863282c16.367187 5.457031 27.359375 20.703124 27.359375 37.953124zm0 0"/></svg>