<?xml version="1.0"?>
<svg xmlns="http://www.w3.org/2000/svg" viewBox="0 0 64 64" width="512" height="512"><g id="Browser"><path d="M61.142,43.01l-3.679-.526a11.92,11.92,0,0,0-.872-2.1l2.23-2.972a1,1,0,0,0-.093-1.307L55.9,33.272a1,1,0,0,0-1.307-.093l-2.972,2.23a11.92,11.92,0,0,0-2.1-.872l-.526-3.679A1,1,0,0,0,48,30H44a1,1,0,0,0-.99.858l-.526,3.679a11.92,11.92,0,0,0-2.1.872l-2.972-2.23a1,1,0,0,0-1.307.093L33.272,36.1a1,1,0,0,0-.093,1.307l2.23,2.972a11.92,11.92,0,0,0-.872,2.1l-3.679.526A1,1,0,0,0,30,44v4a1,1,0,0,0,.858.99l3.679.526a11.92,11.92,0,0,0,.872,2.1l-2.23,2.972a1,1,0,0,0,.093,1.307L36.1,58.728a1,1,0,0,0,1.307.093l2.972-2.23a11.92,11.92,0,0,0,2.1.872l.526,3.679A1,1,0,0,0,44,62h4a1,1,0,0,0,.99-.858l.526-3.679a11.92,11.92,0,0,0,2.1-.872l2.972,2.23a1,1,0,0,0,1.307-.093L58.728,55.9a1,1,0,0,0,.093-1.307l-2.23-2.972a11.92,11.92,0,0,0,.872-2.1l3.679-.526A1,1,0,0,0,62,48V44A1,1,0,0,0,61.142,43.01ZM60,47.133l-3.468.495a1,1,0,0,0-.83.753,9.9,9.9,0,0,1-1.159,2.8A1,1,0,0,0,54.6,52.3l2.1,2.8-1.6,1.6-2.8-2.1a1,1,0,0,0-1.119-.055,9.9,9.9,0,0,1-2.8,1.159,1,1,0,0,0-.753.83L47.133,60H44.867l-.495-3.468a1,1,0,0,0-.753-.83,9.9,9.9,0,0,1-2.8-1.159,1,1,0,0,0-1.119.055l-2.8,2.1-1.6-1.6,2.1-2.8a1,1,0,0,0,.055-1.119,9.9,9.9,0,0,1-1.159-2.8,1,1,0,0,0-.83-.753L32,47.133V44.867l3.468-.495a1,1,0,0,0,.83-.753,9.9,9.9,0,0,1,1.159-2.8,1,1,0,0,0-.055-1.119l-2.1-2.8,1.6-1.6,2.8,2.1a1,1,0,0,0,1.119.055,9.9,9.9,0,0,1,2.8-1.159,1,1,0,0,0,.753-.83L44.867,32h2.266l.495,3.468a1,1,0,0,0,.753.83,9.9,9.9,0,0,1,2.8,1.159A1,1,0,0,0,52.3,37.4l2.8-2.1,1.6,1.6-2.1,2.8a1,1,0,0,0-.055,1.119,9.9,9.9,0,0,1,1.159,2.8,1,1,0,0,0,.83.753L60,44.867Z"/><path d="M46,39a7,7,0,1,0,7,7A7.008,7.008,0,0,0,46,39Zm0,12a5,5,0,1,1,5-5A5.006,5.006,0,0,1,46,51Z"/><path d="M4,49V12H52V32h2V7a5.006,5.006,0,0,0-5-5H7A5.006,5.006,0,0,0,2,7V49a5.006,5.006,0,0,0,5,5H31V52H7A3,3,0,0,1,4,49ZM7,4H49a3,3,0,0,1,3,3v3H4V7A3,3,0,0,1,7,4Z"/><rect x="8" y="6" width="2" height="2"/><rect x="12" y="6" width="2" height="2"/><rect x="16" y="6" width="2" height="2"/><rect x="22" y="6" width="22" height="2"/><path d="M48,28V18a2,2,0,0,0-2-2H10a2,2,0,0,0-2,2V36a2,2,0,0,0,2,2H31V36H10V18H46V28Z"/><rect x="9" y="42" width="16" height="2"/><rect x="9" y="46" width="16" height="2"/><rect x="27" y="26" width="2" height="2"/><rect x="31" y="26" width="4" height="2"/><rect x="21" y="26" width="4" height="2"/><rect x="45" y="35" width="2" height="2"/><rect x="37.929" y="37.929" width="2" height="2" transform="translate(-16.125 38.929) rotate(-45)"/><rect x="35" y="45" width="2" height="2"/><rect x="37.929" y="52.071" width="2" height="2" transform="translate(-26.125 43.071) rotate(-45)"/><rect x="45" y="55" width="2" height="2"/><rect x="52.071" y="52.071" width="2" height="2" transform="translate(-21.983 53.071) rotate(-45)"/><rect x="55" y="45" width="2" height="2"/><rect x="52.071" y="37.929" width="2" height="2" transform="translate(-11.983 48.929) rotate(-45)"/></g></svg>
