<svg height="512pt" viewBox="0 0 512 512.00079" width="512pt" xmlns="http://www.w3.org/2000/svg"><path d="m495.394531 165.605469c-6.976562-18.480469-16.113281-36.160157-27.144531-52.542969-7.703125-11.449219-16.429688-22.386719-25.9375-32.507812-8.484375-9.019532-17.71875-17.507813-27.449219-25.226563-26.425781-20.992187-56.402343-36.320313-89.09375-45.554687-.046875-.011719-.09375-.023438-.136719-.035157-.0625-.015625-.125-.035156-.1875-.050781-4.78125-1.34375-9.671874-2.574219-14.5625-3.648438-6.859374-1.496093-13.773437-2.726562-20.5625-3.65625-37.578124-5.132812-74.957031-1.964843-111.089843 9.421876-.074219.019531-.144531.042968-.21875.0625-11.796875 3.738281-23.40625 8.367187-34.492188 13.753906-20.9375 10.132812-40.382812 23.050781-57.796875 38.390625-.042968.035156-.085937.074219-.128906.113281-.007812.011719-.023438.019531-.03125.03125-24.28125 21.417969-44.007812 46.84375-58.625 75.570312-9.828125 19.265626-17.203125 39.90625-21.921875 61.347657-5.867187 26.707031-7.453125 53.914062-4.710937 80.859375 5.277343 51.9375 26.824218 101.691406 60.988281 141.347656l-.902344.332031c-13.441406 4.957031-23.574219 16.214844-27.109375 30.121094-1.042969 4.105469 1.441406 8.28125 5.550781 9.324219.632813.164062 1.265625.238281 1.894531.238281 3.425782 0 6.546876-2.308594 7.429688-5.785156 2.289062-9.003907 8.847656-16.292969 17.546875-19.5l11.597656-4.285157c.023438-.011718.050781-.019531.078125-.027343l17.414063-6.433594 22.917969 22.796875c1.492187 1.480469 3.453124 2.230469 5.414062 2.230469 1.800781 0 3.605469-.628907 5.054688-1.898438l14.632812-12.816406 13.9375 12.710937c1.464844 1.339844 3.316406 2.003907 5.167969 2.003907 1.925781 0 3.847656-.71875 5.332031-2.152344l23.714844-22.902344 23.269531 8.597657c.070313.027343.140625.050781.210937.078124l5.6875 2.101563c.722657.265625 1.375.539063 2.046876.851563 7.742187 3.570312 13.386718 10.367187 15.488281 18.644531l9.597656 37.875c.023437.085937.03125.167969.03125.265625 0 .433594-.324219.851562-.734375.960937-.027344.003907-.058594.011719-.089844.015625-.019531.003906-.039062.007813-.054687.011719-.070313.011719-.117188.011719-.144531.011719h-206.71875c-.332032 0-.597657-.128906-.800782-.386719-.203125-.261719-.261718-.558594-.179687-.882813l1.203125-4.75c1.039062-4.109374-1.449219-8.28125-5.558594-9.320312-4.105469-1.035156-8.28125 1.449219-9.320312 5.554688l-1.203126 4.75c-1.25 4.933593-.175781 10.0625 2.949219 14.074218 3.121094 4.007813 7.828125 6.308594 12.910157 6.308594h206.71875c.644531 0 1.292968-.050781 1.941406-.128906 2.328125.074218 4.6875.109375 7.066406.109375 2.164062 0 4.351562-.035157 6.539062-.097657.609376.070313 1.226563.117188 1.847657.117188h206.71875c5.085937 0 9.789062-2.300781 12.910156-6.308594 3.125-4.011718 4.199219-9.144531 2.949219-14.070312l-9.589844-37.886719c-3.53125-13.90625-13.664062-25.164063-27.101562-30.121094l-.878907-.324219c12.921875-14.925781 24.0625-31.285156 33.179688-48.777343 3.191406-6.113281 6.179687-12.449219 8.875-18.832031 1.648437-3.90625-.183594-8.40625-4.089844-10.054688-3.902344-1.644531-8.402344.179688-10.050781 4.085938-2.089844 4.953124-4.375 9.867187-6.796875 14.667968-6.746094 1.484375-10.617188.78125-11.71875-.238281-.515625-1.625.601562-8.082031 1.683593-14.324219.972657-5.617187 2.183594-12.605468 3.402344-21.667968 2.382813-17.734376 4.4375-33.050782 3.324219-50.175782-2.394531-37.183594-10.441406-56.996094-24.597656-60.570312-12.484375-3.152344-21.910157 7.984375-30.230469 17.804687-4.210938 4.972657-8.875 10.480469-13.117188 13.15625-4.277343-2.671875-8.921874-4.816406-13.84375-6.324219-4.160156-6.964843-9.359374-20.476562-12.984374-46.558593-2.625-18.863281-5.597657-40.242188 5.265624-50.71875 3.4375-3.308594 5.910157-3.617188 15.835938-4.386719 6.640625-.515625 15.730469-1.21875 28.617188-3.660156 17.0625-3.234375 28.164062-7.113282 36.347656-10.085938 8.917968 13.984375 16.40625 28.890625 22.269531 44.414063 16.523437 43.601562 19.949219 90.839843 9.902344 136.605469-.953125 4.328124-2.035157 8.683593-3.21875 12.949218-1.136719 4.082032 1.253906 8.3125 5.339843 9.445313 4.085938 1.136719 8.3125-1.253907 9.445313-5.339844 1.261719-4.53125 2.410156-9.160156 3.421875-13.765625 10.6875-48.6875 7.039062-98.941406-10.542969-145.332031zm-73.960937-84.265625c-2.488282.753906-5.105469 1.660156-7.898438 2.804687-5.164062 2.117188-7.5625 3.632813-10.097656 5.242188-2.300781 1.457031-4.90625 3.105469-11.015625 5.910156-12.921875 5.941406-22.257813 10.234375-27.222656 8.121094-2.078125-.886719-3.125-2.976563-6.6875-11.535157-.722657-1.734374-1.515625-3.636718-2.417969-5.726562-7.152344-16.632812-12.917969-26.285156-17.132812-33.332031-5.070313-8.484375-7.386719-12.359375-7.9375-21.15625-.0625-.972657-.15625-2.484375-.195313-4.304688 27.148437 8.839844 52.171875 22.253907 74.492187 39.984375 5.5625 4.414063 10.949219 9.097656 16.113282 13.992188zm-139.445313-64.519532c-.039062 3.539063-.46875 6.109376-.539062 6.511719-2.933594 16.589844-17.136719 25.074219-21.410157 27.277344-18.492187 9.496094-40.71875 2.234375-53.546874-8.527344-5.601563-4.699219-10.785157-11.210937-14.507813-18.03125 29.398437-8.15625 59.609375-10.59375 90.003906-7.230469zm-265.414062 263.554688c-2.574219-25.320312-1.085938-50.894531 4.433593-76.007812 4.4375-20.164063 11.371094-39.566407 20.605469-57.675782 12.914063-25.382812 30.070313-48.019531 51.039063-67.367187.789062.445312 1.578125.882812 2.359375 1.308593 5.546875 3.03125 8.996093 5.0625 9.855469 8.460938.984374 3.890625-1.980469 7.671875-9.5 16-5.535157 6.132812-12.425782 13.761719-17.730469 24.023438-1.945313 3.765624-.46875 8.398437 3.292969 10.339843 1.128906.585938 2.332031.859375 3.519531.859375 2.777343 0 5.457031-1.511718 6.820312-4.152344 4.394531-8.496093 10.289063-15.023437 15.488281-20.785156 7.90625-8.757812 16.082032-17.8125 12.988282-30.054687-2.21875-8.734375-8.707032-13.269531-14.699219-16.675781 12.921875-10.398438 26.898437-19.453126 41.722656-27.003907 5.085938 4.695313 9.042969 10.148438 11.332031 15.691407 3.742188 9.070312 2.46875 17.242187 1.238282 25.144531-1.320313 8.476562-2.816406 18.085937 4.785156 25.125 10.472656 9.703125 25.96875 3.894531 39.644531-1.226563 5.375-2.015625 15.339844-5.738281 17.9375-4.714844.527344.761719 1.8125 4.660157.074219 13.136719-3.363281 16.425781-15.609375 38.246094-34.550781 47.347657-9.847657 4.738281-20.125 5.199218-29.195313 5.601562-11.78125.527344-23.96875 1.070312-30.246094 12.140625-6.132812 10.765625-2.5 25.183594 4.035157 33.289063 8.207031 10.15625 19.714843 10.613281 31.898437 11.09375 6.769532.269531 14.441406.574218 22.617188 2.546874 10.667968 2.582032 14.839844 6.164063 22.410156 12.660157 5.972656 5.125 13.402344 11.503906 26.347656 19.589843 22.550782 14.105469 41.96875 20.875 56.144532 25.820313 8.011718 2.792969 14.675781 5.121094 18.800781 7.714844-.367188 3.839843-.375 7.726562.027343 11.617187l.410157 5.367188c-2.121094 3.375-4.96875 7.394531-8.816407 12.765625-11.816406 16.503906-22.601562 25.914062-32.117187 34.210937-3.570313 3.113282-6.9375 6.050782-10.253906 9.238282-14.960938 14.394531-24.738281 30.136718-31.238281 43.136718 1.050781-16.46875-.054688-37.753906-9.734376-59.023437-4.03125-8.851563-8.445312-15.308594-12.34375-21.007813-1.589843-2.328125-3.105468-4.554687-4.515624-6.8125l.570312-7.605468c.003906-.039063.011719-.074219.015625-.109376l.753906-10.132812.011719-.140625c.203125-1.988281.304688-4.007813.304688-6 0-28.867187-21.007813-52.917969-48.558594-57.746094-5.976563-3.257812-12.429688-5.496093-19.246094-7.839843-14.097656-4.855469-28.675781-9.871094-40.605469-24.953126-8.121093-10.265624-12.09375-25.984374-10.902343-43.128906.292968-4.226562-2.898438-7.894531-7.125-8.1875-4.230469-.296875-7.890626 2.898438-8.1875 7.125-1.453126 20.910156 3.714843 40.488282 14.179687 53.714844 11.976563 15.140625 26.292969 22.121094 39.117187 26.917969-7.953124 3.316406-15.179687 8.355469-21.058593 14.882812-.691407.769531-1.363281 1.554688-2.011719 2.355469-8.429688 10.425781-13.03125 23.441406-13.070312 36.792969-.007813 2.054687.09375 4.117187.308593 6.179687l.046875.648438.726563 9.523437c0 .007813.003906.011719.003906.019531l3.953125 51.753907c.007812.074219.015625.148437.023438.222656 1.21875 11.527344 8.246093 21.652344 18.359374 26.933594v12.667969l-14.007812 5.171874c-.007812.003907-.011719.007813-.019531.007813l-17.328125 6.402344c-34.324219-37.949219-55.984375-86.472657-61.140625-137.199219zm395.308593 17.738281c0 1.503907-.078124 3.027344-.234374 4.527344-.007813.074219-.015626.148437-.019532.222656l-.246094 3.277344h-8.21875c-10.71875-.613281-21.03125-3.285156-30.660156-7.949219-7.863281-3.808594-15.027344-8.851562-21.296875-14.988281-2.300781-2.253906-5.652343-3.113281-8.753906-2.246094-3.09375.863281-5.515625 3.335938-6.316406 6.449219-.898438 3.496094-2.941407 8.550781-7.582031 12.804688-1.054688.964843-2.132813 1.789062-3.210938 2.496093-1.277344-12.203125 2.699219-24.425781 10.90625-33.539062 8.214844-9.125 19.964844-14.355469 32.242188-14.355469 23.925781 0 43.390624 19.425781 43.390624 43.300781zm-55.398437 103.757813c3.671875 1.289062 7.535156 1.933594 11.398437 1.933594 3.726563 0 7.457032-.601563 11.007813-1.804688l8.390625-2.832031v7.71875l-8.589844 5.113281-10.691406 6.367188-2.53125-1.484376-16.929688-9.9375v-7.863281zm-16.371094 17.925781 14.855469 8.71875-6.402344 5.609375-12.792968-12.726562zm49.066407 3.820313 6.550781-3.898438 4.367187 1.613281-13.214844 12.761719-6.042968-5.511719zm4.960937-42.957032-1.445313.488282c-.027343.007812-.054687.019531-.082031.027343l-18.636719 6.285157c-4.007812 1.355468-8.414062 1.328124-12.414062-.070313l-18.3125-6.425781c-.042969-.011719-.082031-.027344-.121094-.039063l-.378906-.132812c-6.890625-2.417969-11.84375-8.65625-12.652344-15.910157l-3.484375-45.605468c3.871094-1.566406 8.203125-3.988282 12.308594-7.75 3.886719-3.5625 6.625-7.445313 8.558594-11.132813 5.648437 4.546875 11.789062 8.4375 18.335937 11.605469 11.53125 5.585938 23.882813 8.773438 36.714844 9.476562.140625.003907.28125.007813.421875.007813h7.277344l-3.234375 43.152344c-.800782 7.371093-5.839844 13.652343-12.855469 16.023437zm-215.625 25.242188v-12.164063c10.832031-5.085937 18.398437-15.546875 19.644531-27.621093.007813-.074219.015625-.144532.019532-.214844l1.402343-18.691406c1.632813 2.738281 3.238281 5.703124 4.773438 9.070312 10.460937 22.988281 9.414062 46.03125 7.414062 61.910156zm-27.53125-150.589844c.011719.003906.023437.003906.03125.007812 20.789063 3.195313 36.757813 21.167969 36.757813 42.792969 0 1.503907-.082032 3.027344-.234376 4.527344-.011718.074219-.015624.148437-.023437.222656l-.246094 3.277344h-8.214843c-10.71875-.613281-21.035157-3.285156-30.660157-7.949219-7.867187-3.8125-15.03125-8.855468-21.300781-14.988281-2.300781-2.253906-5.652344-3.113281-8.75-2.246094-3.097656.863281-5.515625 3.335938-6.320312 6.449219-.894532 3.496094-2.9375 8.550781-7.582032 12.804688-1.054687.964843-2.132812 1.789062-3.210937 2.496093-1.273438-12.199219 2.699219-24.425781 10.910156-33.542969 8.210937-9.121093 19.964844-14.351562 32.242187-14.351562 2.242188 0 4.449219.171875 6.601563.5zm-36.171875 56.214844c3.882812-3.558594 6.625-7.445313 8.554688-11.132813 5.648437 4.550781 11.789062 8.4375 18.335937 11.609375 11.53125 5.582032 23.882813 8.769532 36.71875 9.472656.140625.007813.277344.011719.417969.011719h7.28125l-3.234375 43.148438c-.800781 7.371093-5.839844 13.652343-12.855469 16.023437l-1.441406.488282c-.035156.007812-.066406.019531-.101563.03125l-18.621093 6.28125c-4.007813 1.355468-8.414063 1.332031-12.414063-.070313l-18.363281-6.441406c-.023438-.007813-.042969-.015625-.066406-.023438l-.382813-.136719c-6.886719-2.414062-11.84375-8.652343-12.652344-15.910156l-3.484375-45.601562c3.867188-1.566406 8.203125-3.992188 12.308594-7.75zm29.074219 106.839844-1.855469-1.085938-17.609375-10.335938v-7.863281l7.949219 2.789063c3.671875 1.289062 7.535156 1.933594 11.398437 1.933594 3.730469 0 7.457031-.601563 11.007813-1.804688l8.394531-2.832031v7.71875l-13.128906 7.816406zm-19.429688 15.757812-12.796875-12.722656 4.339844-1.605469 14.859375 8.722656zm38.3125-.03125-6.042969-5.511719 2.042969-1.214843 12.851563-7.648438 4.363281 1.613281zm73.234375-5.546875c5.558594-13.484375 15.171875-33.632813 33.929688-51.679687 3.042968-2.921876 6.277344-5.746094 9.703125-8.730469 9.667969-8.433594 20.566406-17.953125 32.695312-34.363281l2.472657 32.398437c.007812.074219.015624.148437.023437.222656 1.21875 11.527344 8.246094 21.652344 18.359375 26.933594v12.664063l-14.007812 5.171874c-.011719.003907-.019532.011719-.03125.015626l-33.644532 12.429687c-13.441406 4.957031-23.574218 16.21875-27.109375 30.125l-2.425781 9.570313-2.421875-9.574219c-2.640625-10.390625-8.898437-19.269531-17.542969-25.183594zm226.777344 28.957031 9.585938 37.882813c.082031.320312.023437.617187-.179688.875-.203125.257812-.472656.390625-.800781.390625h-206.71875c-.035157 0-.0625-.003906-.085938-.003906-.039062-.007813-.078125-.011719-.117187-.019532-.453125-.085937-.820313-.519531-.820313-.980468 0-.097657.007813-.179688.03125-.265626l9.59375-37.871093c2.289063-9.003907 8.847657-16.296875 17.546875-19.503907l29.085938-10.746093 22.921875 22.796875c1.492187 1.484375 3.449219 2.230468 5.410156 2.230468 1.800781 0 3.605469-.628906 5.058594-1.898437l14.628906-12.816406 13.9375 12.710937c1.464844 1.339844 3.320313 2.003906 5.167969 2.003906 1.925781 0 3.847656-.71875 5.332031-2.152343l23.71875-22.902344 17.472656 6.457031c.03125.011719.0625.019532.089844.03125l11.597656 4.289063c8.699219 3.207031 15.257813 10.496093 17.542969 19.492187zm-38.414062-212.378906c4.605468-5.4375 11.570312-13.65625 14.761718-12.84375.550782.136719 5.480469 1.859375 9.453125 19.441406 2.558594 11.304688 3.332031 23.296875 3.585938 27.238282 1.011719 15.605468-.949219 30.222656-3.222657 47.152343-1.175781 8.761719-2.359374 15.59375-3.308593 21.082031-2.410157 13.890626-3.734375 21.542969 2.640625 27.851563 3.3125 3.285156 7.914062 5.101563 13.601562 5.453125-7.980468 13.210938-17.238281 25.625-27.648437 37.082031l-31.601563-11.675781v-12.167969c10.828125-5.082031 18.398438-15.546875 19.644532-27.621093.007812-.070313.015624-.144532.019531-.214844l3.855469-51.410156c.003906-.039063.007812-.070313.011718-.105469l.753906-10.128907.011719-.148437c.203125-1.988281.304688-4.003906.304688-5.996094 0-15.289062-5.894531-29.222656-15.527344-39.671875 4.558594-3.757812 8.652344-8.578125 12.664063-13.316406zm-4.800782-123.492188c-12.050781 2.28125-20.308594 2.921876-26.941406 3.4375-10.695312.828126-17.761719 1.375-25.300781 8.636719-16.492188 15.902344-12.792969 42.503907-9.8125 63.917969 2.386719 17.1875 5.734375 31.179688 9.984375 41.867188-16.257813.277343-31.753906 7.304687-42.648438 19.40625-4.855468 5.386718-8.613281 11.582031-11.164062 18.222656-4.808594-2.332032-10.578125-4.347656-17.386719-6.71875-14.242187-4.96875-31.964844-11.148438-53.0625-24.34375-11.964844-7.472656-18.90625-13.433594-24.484375-18.21875-8.125-6.976563-14.542969-12.484375-28.800781-15.933594-9.652344-2.332031-18.132813-2.667969-25.613281-2.964844-11-.4375-16.90625-.875-20.566407-5.402344-3.679687-4.5625-4.914062-12.0625-2.632812-16.066406 1.898437-3.347656 6.816406-3.90625 17.589843-4.386718 10.015626-.449219 22.484376-1.003907 35.160157-7.101563 23.855469-11.46875 39.894531-39.195313 43.40625-60.660156 1.839843-11.238281.140625-19.78125-4.910157-24.703125-8.402343-8.199219-21.414062-3.324219-33.996093 1.386718-8.570313 3.210938-20.300781 7.605469-23.828125 4.339844-1.53125-1.417968-1.015625-5.296875-.050782-11.507812 1.335938-8.574219 3.164063-20.316406-2.214843-33.355469-2.421875-5.859375-6.128907-11.578125-10.792969-16.742187 5.121094-2.195313 10.332031-4.214844 15.59375-6.054688 4.703125 9.503906 11.691406 18.570312 19.539062 25.152344 11.339844 9.515625 27.617188 16.589844 44.535157 16.585937 8.652343 0 17.476562-1.851562 25.886719-6.171875 5.871093-3.019531 25.347656-14.710937 29.507812-38.242187.1875-1.046875.578125-3.589844.726562-7.007813 3.433594.605469 6.882813 1.277344 10.308594 2.023438 2.644532.582031 5.289063 1.222656 7.917969 1.890625-.144531 4.25.074219 7.824219.195313 9.710937.785156 12.515625 4.480468 18.703125 10.082031 28.070313 3.992187 6.675781 9.457031 15.820312 16.207031 31.519531.875 2.03125 1.644531 3.882812 2.347656 5.566406 4.09375 9.824219 6.796875 16.320313 14.832032 19.75 2.914062 1.242188 5.875 1.789063 8.953124 1.789063 8.769532 0 18.484376-4.464844 30.703126-10.082031 7.042968-3.230469 10.246093-5.261719 12.816406-6.890626 2.203125-1.394531 3.792968-2.402343 7.710937-4.003906 5.535157-2.273437 10.261719-3.484375 14.53125-4.28125 5.640625 6.210938 10.972657 12.722656 15.929688 19.464844-7.417969 2.613281-16.710938 5.535156-30.257813 8.101562zm0 0"/></svg>